<svg xmlns="http://www.w3.org/2000/svg" xmlns:xlink="http://www.w3.org/1999/xlink" width="765" zoomAndPan="magnify" viewBox="0 0 573.75 328.49999" height="438" preserveAspectRatio="xMidYMid meet" version="1.2"><defs><clipPath id="3a0ecbbaac"><path d="M 0.3125 0 L 573.1875 0 L 573.1875 328 L 0.3125 328 Z M 0.3125 0 "/></clipPath><clipPath id="4d5e714c42"><path d="M 61.734375 19.40625 L 327.582031 19.40625 L 327.582031 285.25 L 61.734375 285.25 Z M 61.734375 19.40625 "/></clipPath><clipPath id="9a21ac52be"><path d="M 103.472656 224 L 128 224 L 128 248.238281 L 103.472656 248.238281 Z M 103.472656 224 "/></clipPath><clipPath id="0560719f68"><path d="M 103.472656 210 L 142 210 L 142 248.238281 L 103.472656 248.238281 Z M 103.472656 210 "/></clipPath><clipPath id="8614859f67"><path d="M 103.472656 196.566406 L 155.144531 196.566406 L 155.144531 248.238281 L 103.472656 248.238281 Z M 103.472656 196.566406 "/></clipPath><clipPath id="5955b53853"><path d="M 261 58 L 289 58 L 289 79 L 261 79 Z M 261 58 "/></clipPath><clipPath id="3cc3ab4353"><path d="M 285.09375 54.230469 L 294.449219 105.046875 L 243.628906 114.402344 L 234.277344 63.582031 Z M 285.09375 54.230469 "/></clipPath><clipPath id="401557f4b7"><path d="M 234.058594 63.625 L 243.410156 114.441406 L 294.230469 105.085938 L 284.875 54.269531 Z M 234.058594 63.625 "/></clipPath><clipPath id="cf64d11c48"><path d="M 248 60 L 292 60 L 292 93 L 248 93 Z M 248 60 "/></clipPath><clipPath id="3afee2114b"><path d="M 285.09375 54.230469 L 294.449219 105.046875 L 243.628906 114.402344 L 234.277344 63.582031 Z M 285.09375 54.230469 "/></clipPath><clipPath id="d0a0d31274"><path d="M 234.058594 63.625 L 243.410156 114.441406 L 294.230469 105.085938 L 284.875 54.269531 Z M 234.058594 63.625 "/></clipPath><clipPath id="9a01e4662e"><path d="M 234 63 L 294 63 L 294 107 L 234 107 Z M 234 63 "/></clipPath><clipPath id="b51b9a29ea"><path d="M 285.09375 54.230469 L 294.449219 105.046875 L 243.628906 114.402344 L 234.277344 63.582031 Z M 285.09375 54.230469 "/></clipPath><clipPath id="18e3e5b40a"><path d="M 234.058594 63.625 L 243.410156 114.441406 L 294.230469 105.085938 L 284.875 54.269531 Z M 234.058594 63.625 "/></clipPath></defs><g id="f2cfe80233"><g clip-rule="nonzero" clip-path="url(#3a0ecbbaac)"><path style=" stroke:none;fill-rule:nonzero;fill:#ffffff;fill-opacity:1;" d="M 0.3125 0 L 573.1875 0 L 573.1875 328 L 0.3125 328 Z M 0.3125 0 "/><path style=" stroke:none;fill-rule:nonzero;fill:#000000;fill-opacity:1;" d="M 0.3125 0 L 573.1875 0 L 573.1875 328 L 0.3125 328 Z M 0.3125 0 "/></g><g clip-rule="nonzero" clip-path="url(#4d5e714c42)"><path style=" stroke:none;fill-rule:nonzero;fill:#01abc7;fill-opacity:1;" d="M 134.726562 139.367188 C 94.394531 139.367188 61.746094 172.050781 61.734375 212.339844 C 61.746094 252.644531 94.394531 285.320312 134.726562 285.320312 C 175.027344 285.320312 207.625 252.648438 207.648438 212.339844 L 207.648438 191.515625 L 181.585938 191.515625 L 181.585938 212.339844 C 181.566406 225.320312 176.351562 236.945312 167.851562 245.464844 C 159.355469 253.984375 147.71875 259.207031 134.734375 259.207031 C 131.65625 259.210938 128.605469 258.917969 125.585938 258.316406 C 122.566406 257.71875 119.632812 256.832031 116.789062 255.652344 C 113.945312 254.472656 111.246094 253.027344 108.6875 251.3125 C 106.128906 249.601562 103.761719 247.652344 101.589844 245.46875 C 100.503906 244.386719 99.46875 243.253906 98.492188 242.070312 C 97.515625 240.886719 96.597656 239.65625 95.742188 238.382812 C 94.886719 237.109375 94.09375 235.792969 93.367188 234.441406 C 92.640625 233.089844 91.980469 231.703125 91.390625 230.285156 C 90.800781 228.867188 90.285156 227.425781 89.835938 225.957031 C 89.390625 224.488281 89.015625 223 88.714844 221.496094 C 88.414062 219.988281 88.1875 218.472656 88.035156 216.945312 C 87.886719 215.417969 87.808594 213.886719 87.808594 212.351562 C 87.808594 210.8125 87.886719 209.28125 88.035156 207.753906 C 88.1875 206.226562 88.414062 204.710938 88.714844 203.203125 C 89.015625 201.699219 89.390625 200.210938 89.835938 198.742188 C 90.285156 197.273438 90.800781 195.832031 91.390625 194.414062 C 91.980469 192.996094 92.640625 191.609375 93.367188 190.257812 C 94.09375 188.90625 94.886719 187.589844 95.742188 186.316406 C 96.597656 185.042969 97.515625 183.8125 98.492188 182.628906 C 99.46875 181.445312 100.503906 180.3125 101.589844 179.230469 C 110.132812 170.722656 121.738281 165.507812 134.738281 165.492188 L 254.597656 165.492188 C 294.917969 165.492188 327.566406 133.042969 327.582031 92.738281 C 327.582031 91.542969 327.550781 90.351562 327.492188 89.15625 C 327.433594 87.964844 327.347656 86.773438 327.230469 85.585938 C 327.113281 84.394531 326.964844 83.210938 326.789062 82.027344 C 326.617188 80.847656 326.410156 79.671875 326.179688 78.5 C 325.945312 77.328125 325.683594 76.164062 325.394531 75.003906 C 325.101562 73.847656 324.785156 72.695312 324.4375 71.550781 C 324.089844 70.410156 323.714844 69.277344 323.3125 68.152344 C 322.910156 67.027344 322.480469 65.914062 322.023438 64.808594 C 321.566406 63.707031 321.085938 62.613281 320.574219 61.535156 C 320.0625 60.453125 319.527344 59.386719 318.960938 58.335938 C 318.398438 57.28125 317.8125 56.242188 317.195312 55.21875 C 316.582031 54.191406 315.945312 53.183594 315.28125 52.191406 C 314.617188 51.199219 313.929688 50.222656 313.21875 49.261719 C 312.507812 48.304688 311.773438 47.363281 311.015625 46.4375 C 310.257812 45.515625 309.476562 44.609375 308.675781 43.726562 C 307.871094 42.839844 307.050781 41.976562 306.203125 41.132812 C 305.359375 40.285156 304.496094 39.464844 303.609375 38.660156 C 302.726562 37.859375 301.820312 37.078125 300.898438 36.320312 C 299.972656 35.5625 299.03125 34.828125 298.074219 34.117188 C 297.113281 33.40625 296.136719 32.71875 295.144531 32.054688 C 294.152344 31.390625 293.144531 30.753906 292.117188 30.136719 C 291.09375 29.523438 290.054688 28.9375 289 28.371094 C 287.949219 27.808594 286.882812 27.273438 285.800781 26.761719 C 284.722656 26.25 283.628906 25.769531 282.527344 25.3125 C 281.421875 24.855469 280.308594 24.425781 279.183594 24.023438 C 278.058594 23.617188 276.925781 23.246094 275.785156 22.898438 C 274.640625 22.550781 273.488281 22.234375 272.332031 21.941406 C 271.171875 21.652344 270.007812 21.390625 268.835938 21.15625 C 267.664062 20.925781 266.488281 20.71875 265.304688 20.546875 C 264.125 20.371094 262.941406 20.222656 261.75 20.105469 C 260.5625 19.988281 259.371094 19.902344 258.179688 19.84375 C 256.984375 19.785156 255.792969 19.753906 254.597656 19.753906 C 214.289062 19.773438 181.632812 52.417969 181.613281 92.738281 L 181.597656 113.347656 L 207.644531 113.347656 L 207.644531 92.738281 C 207.664062 79.769531 212.960938 68.148438 221.476562 59.609375 C 229.992188 51.121094 241.605469 45.890625 254.59375 45.890625 C 257.671875 45.886719 260.722656 46.179688 263.742188 46.78125 C 266.765625 47.378906 269.695312 48.265625 272.542969 49.445312 C 275.386719 50.625 278.085938 52.070312 280.644531 53.785156 C 283.203125 55.496094 285.570312 57.445312 287.742188 59.628906 C 296.226562 68.144531 301.449219 79.773438 301.449219 92.742188 C 301.457031 95.820312 301.164062 98.867188 300.566406 101.882812 C 299.96875 104.902344 299.082031 107.832031 297.90625 110.671875 C 296.726562 113.515625 295.285156 116.214844 293.570312 118.769531 C 291.859375 121.324219 289.910156 123.6875 287.730469 125.855469 C 279.214844 134.359375 267.582031 139.367188 254.59375 139.382812 Z M 134.726562 139.367188 "/></g><g clip-rule="nonzero" clip-path="url(#9a21ac52be)"><path style=" stroke:none;fill-rule:nonzero;fill:#ffde80;fill-opacity:1;" d="M 106.058594 224.109375 C 105.734375 224.109375 105.417969 224.171875 105.117188 224.296875 C 104.8125 224.425781 104.546875 224.601562 104.316406 224.832031 C 104.085938 225.066406 103.90625 225.332031 103.78125 225.632812 C 103.65625 225.9375 103.59375 226.25 103.59375 226.578125 C 103.59375 226.90625 103.65625 227.21875 103.78125 227.523438 C 103.90625 227.824219 104.085938 228.089844 104.316406 228.324219 C 104.546875 228.554688 104.8125 228.730469 105.117188 228.855469 C 105.417969 228.984375 105.734375 229.046875 106.058594 229.046875 C 106.605469 229.046875 107.152344 229.074219 107.695312 229.128906 C 108.238281 229.183594 108.777344 229.265625 109.3125 229.371094 C 109.847656 229.480469 110.378906 229.613281 110.902344 229.773438 C 111.421875 229.929688 111.9375 230.117188 112.441406 230.324219 C 112.945312 230.535156 113.4375 230.769531 113.921875 231.027344 C 114.402344 231.285156 114.871094 231.566406 115.324219 231.867188 C 115.777344 232.171875 116.214844 232.5 116.636719 232.84375 C 117.058594 233.191406 117.464844 233.558594 117.851562 233.945312 C 118.234375 234.332031 118.601562 234.734375 118.949219 235.15625 C 119.296875 235.578125 119.621094 236.019531 119.925781 236.472656 C 120.226562 236.925781 120.507812 237.394531 120.765625 237.875 C 121.023438 238.359375 121.257812 238.851562 121.464844 239.355469 C 121.675781 239.859375 121.859375 240.375 122.019531 240.894531 C 122.179688 241.417969 122.3125 241.949219 122.417969 242.484375 C 122.527344 243.019531 122.605469 243.558594 122.660156 244.101562 C 122.714844 244.644531 122.742188 245.191406 122.742188 245.738281 C 122.742188 246.066406 122.804688 246.378906 122.929688 246.683594 C 123.058594 246.984375 123.234375 247.253906 123.46875 247.484375 C 123.699219 247.714844 123.964844 247.894531 124.269531 248.019531 C 124.570312 248.144531 124.886719 248.207031 125.214844 248.207031 C 125.542969 248.207031 125.859375 248.144531 126.160156 248.019531 C 126.464844 247.894531 126.730469 247.714844 126.960938 247.484375 C 127.195312 247.253906 127.371094 246.984375 127.496094 246.683594 C 127.625 246.378906 127.6875 246.066406 127.6875 245.738281 C 127.683594 245.027344 127.648438 244.324219 127.578125 243.617188 C 127.507812 242.914062 127.402344 242.214844 127.265625 241.519531 C 127.125 240.824219 126.953125 240.140625 126.746094 239.464844 C 126.542969 238.785156 126.300781 238.121094 126.03125 237.464844 C 125.757812 236.8125 125.457031 236.171875 125.121094 235.550781 C 124.789062 234.925781 124.425781 234.320312 124.03125 233.730469 C 123.636719 233.140625 123.214844 232.574219 122.765625 232.027344 C 122.316406 231.480469 121.84375 230.957031 121.34375 230.453125 C 120.839844 229.953125 120.316406 229.480469 119.769531 229.03125 C 119.222656 228.582031 118.65625 228.160156 118.066406 227.765625 C 117.476562 227.371094 116.871094 227.007812 116.246094 226.675781 C 115.625 226.339844 114.984375 226.039062 114.332031 225.765625 C 113.675781 225.496094 113.011719 225.257812 112.332031 225.050781 C 111.65625 224.84375 110.972656 224.671875 110.277344 224.53125 C 109.582031 224.394531 108.882812 224.289062 108.179688 224.21875 C 107.472656 224.148438 106.769531 224.113281 106.058594 224.109375 Z M 106.058594 224.109375 "/></g><g clip-rule="nonzero" clip-path="url(#0560719f68)"><path style=" stroke:none;fill-rule:nonzero;fill:#ffde80;fill-opacity:1;" d="M 106.058594 210.371094 C 105.734375 210.371094 105.417969 210.433594 105.117188 210.558594 C 104.8125 210.683594 104.546875 210.859375 104.316406 211.089844 C 104.085938 211.324219 103.90625 211.589844 103.78125 211.890625 C 103.65625 212.195312 103.59375 212.507812 103.59375 212.835938 C 103.59375 213.164062 103.65625 213.476562 103.78125 213.78125 C 103.90625 214.082031 104.085938 214.347656 104.316406 214.582031 C 104.546875 214.8125 104.8125 214.992188 105.117188 215.117188 C 105.417969 215.242188 105.734375 215.304688 106.058594 215.304688 C 107.054688 215.304688 108.050781 215.355469 109.039062 215.453125 C 110.03125 215.554688 111.015625 215.699219 111.992188 215.894531 C 112.96875 216.089844 113.933594 216.332031 114.886719 216.625 C 115.839844 216.914062 116.777344 217.25 117.695312 217.632812 C 118.617188 218.015625 119.515625 218.441406 120.394531 218.910156 C 121.269531 219.378906 122.125 219.894531 122.953125 220.445312 C 123.78125 221 124.578125 221.59375 125.347656 222.226562 C 126.117188 222.859375 126.855469 223.527344 127.558594 224.230469 C 128.261719 224.9375 128.929688 225.671875 129.5625 226.445312 C 130.191406 227.214844 130.785156 228.011719 131.339844 228.839844 C 131.890625 229.667969 132.402344 230.523438 132.871094 231.402344 C 133.34375 232.28125 133.769531 233.179688 134.148438 234.097656 C 134.53125 235.019531 134.867188 235.957031 135.15625 236.910156 C 135.445312 237.863281 135.6875 238.828125 135.878906 239.804688 C 136.074219 240.78125 136.222656 241.765625 136.320312 242.757812 C 136.417969 243.746094 136.46875 244.742188 136.46875 245.738281 C 136.46875 246.066406 136.53125 246.382812 136.65625 246.6875 C 136.78125 246.988281 136.960938 247.257812 137.195312 247.492188 C 137.425781 247.722656 137.695312 247.902344 138 248.027344 C 138.300781 248.152344 138.617188 248.21875 138.949219 248.21875 C 139.277344 248.21875 139.59375 248.152344 139.898438 248.027344 C 140.199219 247.902344 140.46875 247.722656 140.703125 247.492188 C 140.933594 247.257812 141.113281 246.988281 141.238281 246.6875 C 141.363281 246.382812 141.429688 246.066406 141.429688 245.738281 C 141.429688 244.578125 141.371094 243.421875 141.257812 242.269531 C 141.144531 241.117188 140.972656 239.972656 140.75 238.835938 C 140.523438 237.699219 140.242188 236.578125 139.90625 235.46875 C 139.570312 234.363281 139.179688 233.273438 138.734375 232.203125 C 138.292969 231.132812 137.796875 230.085938 137.25 229.066406 C 136.707031 228.042969 136.109375 227.050781 135.46875 226.085938 C 134.824219 225.125 134.132812 224.195312 133.398438 223.300781 C 132.664062 222.40625 131.886719 221.546875 131.070312 220.726562 C 130.25 219.910156 129.390625 219.132812 128.496094 218.398438 C 127.601562 217.664062 126.671875 216.972656 125.710938 216.328125 C 124.746094 215.6875 123.753906 215.089844 122.730469 214.546875 C 121.710938 214 120.664062 213.503906 119.59375 213.0625 C 118.523438 212.617188 117.433594 212.226562 116.328125 211.890625 C 115.21875 211.554688 114.097656 211.273438 112.960938 211.046875 C 111.824219 210.824219 110.679688 210.652344 109.527344 210.539062 C 108.375 210.425781 107.21875 210.371094 106.058594 210.371094 Z M 106.058594 210.371094 "/></g><g clip-rule="nonzero" clip-path="url(#8614859f67)"><path style=" stroke:none;fill-rule:nonzero;fill:#ffde80;fill-opacity:1;" d="M 106.058594 196.679688 C 105.734375 196.679688 105.417969 196.742188 105.117188 196.867188 C 104.8125 196.992188 104.546875 197.171875 104.316406 197.402344 C 104.085938 197.632812 103.90625 197.898438 103.78125 198.203125 C 103.65625 198.503906 103.59375 198.820312 103.59375 199.144531 C 103.59375 199.472656 103.65625 199.789062 103.78125 200.089844 C 103.90625 200.394531 104.085938 200.660156 104.316406 200.890625 C 104.546875 201.121094 104.8125 201.300781 105.117188 201.425781 C 105.417969 201.550781 105.734375 201.613281 106.058594 201.613281 C 107.503906 201.617188 108.945312 201.6875 110.382812 201.832031 C 111.820312 201.976562 113.246094 202.1875 114.664062 202.472656 C 116.082031 202.753906 117.480469 203.105469 118.863281 203.527344 C 120.242188 203.949219 121.601562 204.433594 122.9375 204.988281 C 124.269531 205.542969 125.574219 206.160156 126.847656 206.839844 C 128.121094 207.523438 129.359375 208.265625 130.558594 209.066406 C 131.761719 209.871094 132.917969 210.730469 134.035156 211.648438 C 135.152344 212.5625 136.222656 213.53125 137.242188 214.554688 C 138.265625 215.574219 139.234375 216.644531 140.148438 217.761719 C 141.066406 218.878906 141.925781 220.035156 142.730469 221.238281 C 143.53125 222.4375 144.273438 223.675781 144.957031 224.949219 C 145.636719 226.222656 146.253906 227.527344 146.808594 228.859375 C 147.363281 230.195312 147.847656 231.554688 148.269531 232.933594 C 148.691406 234.316406 149.042969 235.714844 149.324219 237.132812 C 149.609375 238.550781 149.820312 239.976562 149.964844 241.414062 C 150.109375 242.851562 150.179688 244.292969 150.183594 245.738281 C 150.183594 246.066406 150.246094 246.378906 150.371094 246.683594 C 150.496094 246.984375 150.675781 247.253906 150.90625 247.484375 C 151.140625 247.714844 151.40625 247.894531 151.710938 248.019531 C 152.011719 248.144531 152.328125 248.207031 152.65625 248.207031 C 152.984375 248.207031 153.296875 248.144531 153.601562 248.019531 C 153.902344 247.894531 154.171875 247.714844 154.402344 247.484375 C 154.632812 247.253906 154.8125 246.984375 154.9375 246.683594 C 155.0625 246.378906 155.125 246.066406 155.125 245.738281 C 155.121094 244.132812 155.039062 242.527344 154.878906 240.929688 C 154.71875 239.332031 154.480469 237.746094 154.164062 236.171875 C 153.847656 234.597656 153.457031 233.042969 152.988281 231.507812 C 152.519531 229.972656 151.976562 228.460938 151.359375 226.980469 C 150.746094 225.496094 150.058594 224.046875 149.300781 222.632812 C 148.542969 221.214844 147.714844 219.839844 146.824219 218.503906 C 145.929688 217.171875 144.972656 215.882812 143.953125 214.640625 C 142.933594 213.402344 141.859375 212.214844 140.722656 211.078125 C 139.585938 209.941406 138.398438 208.863281 137.15625 207.847656 C 135.914062 206.828125 134.628906 205.871094 133.292969 204.976562 C 131.957031 204.085938 130.582031 203.261719 129.167969 202.503906 C 127.75 201.742188 126.300781 201.058594 124.820312 200.441406 C 123.335938 199.824219 121.828125 199.28125 120.289062 198.816406 C 118.753906 198.347656 117.199219 197.953125 115.625 197.640625 C 114.050781 197.324219 112.464844 197.085938 110.867188 196.925781 C 109.269531 196.765625 107.664062 196.683594 106.058594 196.679688 Z M 106.058594 196.679688 "/></g><g clip-rule="nonzero" clip-path="url(#5955b53853)"><g clip-rule="nonzero" clip-path="url(#3cc3ab4353)"><g clip-rule="nonzero" clip-path="url(#401557f4b7)"><path style=" stroke:none;fill-rule:nonzero;fill:#ffde80;fill-opacity:1;" d="M 261.613281 61.183594 C 261.554688 60.859375 261.558594 60.539062 261.628906 60.21875 C 261.695312 59.898438 261.824219 59.605469 262.007812 59.335938 C 262.195312 59.066406 262.425781 58.84375 262.699219 58.664062 C 262.972656 58.488281 263.273438 58.367188 263.59375 58.308594 C 263.914062 58.25 264.238281 58.253906 264.554688 58.324219 C 264.875 58.390625 265.171875 58.519531 265.441406 58.703125 C 265.710938 58.890625 265.933594 59.121094 266.109375 59.394531 C 266.289062 59.667969 266.40625 59.96875 266.46875 60.289062 C 266.566406 60.828125 266.691406 61.355469 266.84375 61.882812 C 266.996094 62.40625 267.175781 62.921875 267.375 63.429688 C 267.578125 63.9375 267.804688 64.433594 268.058594 64.917969 C 268.308594 65.402344 268.582031 65.875 268.882812 66.332031 C 269.179688 66.792969 269.496094 67.234375 269.839844 67.660156 C 270.179688 68.085938 270.539062 68.496094 270.921875 68.886719 C 271.300781 69.28125 271.703125 69.652344 272.117188 70.003906 C 272.535156 70.355469 272.96875 70.6875 273.417969 70.996094 C 273.871094 71.308594 274.332031 71.59375 274.8125 71.859375 C 275.289062 72.121094 275.78125 72.363281 276.28125 72.578125 C 276.78125 72.796875 277.292969 72.988281 277.8125 73.152344 C 278.335938 73.320312 278.863281 73.460938 279.394531 73.574219 C 279.929688 73.6875 280.46875 73.777344 281.011719 73.839844 C 281.554688 73.902344 282.097656 73.9375 282.644531 73.945312 C 283.191406 73.953125 283.734375 73.933594 284.28125 73.890625 C 284.824219 73.84375 285.367188 73.773438 285.902344 73.675781 C 286.226562 73.617188 286.546875 73.621094 286.867188 73.6875 C 287.1875 73.757812 287.484375 73.882812 287.753906 74.070312 C 288.023438 74.257812 288.246094 74.488281 288.425781 74.761719 C 288.601562 75.035156 288.722656 75.335938 288.78125 75.65625 C 288.839844 75.980469 288.835938 76.300781 288.765625 76.621094 C 288.699219 76.941406 288.570312 77.238281 288.386719 77.507812 C 288.199219 77.777344 287.96875 78 287.695312 78.179688 C 287.417969 78.359375 287.121094 78.476562 286.796875 78.535156 C 286.101562 78.664062 285.402344 78.753906 284.695312 78.8125 C 283.988281 78.871094 283.28125 78.894531 282.574219 78.886719 C 281.867188 78.875 281.160156 78.828125 280.457031 78.75 C 279.753906 78.667969 279.054688 78.554688 278.363281 78.40625 C 277.671875 78.257812 276.988281 78.074219 276.316406 77.859375 C 275.640625 77.644531 274.976562 77.394531 274.328125 77.113281 C 273.679688 76.835938 273.042969 76.523438 272.421875 76.179688 C 271.804688 75.835938 271.203125 75.464844 270.621094 75.0625 C 270.039062 74.660156 269.476562 74.230469 268.933594 73.777344 C 268.394531 73.320312 267.875 72.835938 267.382812 72.328125 C 266.890625 71.820312 266.421875 71.289062 265.980469 70.738281 C 265.539062 70.183594 265.125 69.609375 264.738281 69.015625 C 264.355469 68.421875 264 67.8125 263.671875 67.183594 C 263.347656 66.554688 263.054688 65.910156 262.792969 65.253906 C 262.53125 64.59375 262.300781 63.925781 262.101562 63.246094 C 261.90625 62.566406 261.742188 61.878906 261.613281 61.183594 Z M 261.613281 61.183594 "/></g></g></g><g clip-rule="nonzero" clip-path="url(#cf64d11c48)"><g clip-rule="nonzero" clip-path="url(#3afee2114b)"><g clip-rule="nonzero" clip-path="url(#d0a0d31274)"><path style=" stroke:none;fill-rule:nonzero;fill:#ffde80;fill-opacity:1;" d="M 248.097656 63.671875 C 248.039062 63.347656 248.046875 63.027344 248.113281 62.707031 C 248.183594 62.386719 248.308594 62.09375 248.496094 61.824219 C 248.679688 61.554688 248.910156 61.332031 249.183594 61.152344 C 249.460938 60.976562 249.757812 60.855469 250.078125 60.796875 C 250.402344 60.738281 250.722656 60.742188 251.042969 60.8125 C 251.363281 60.878906 251.65625 61.007812 251.925781 61.191406 C 252.195312 61.378906 252.417969 61.609375 252.597656 61.882812 C 252.773438 62.15625 252.894531 62.457031 252.953125 62.777344 C 253.132812 63.757812 253.363281 64.722656 253.640625 65.679688 C 253.917969 66.636719 254.238281 67.578125 254.609375 68.503906 C 254.976562 69.429688 255.390625 70.335938 255.847656 71.21875 C 256.308594 72.101562 256.808594 72.964844 257.347656 73.796875 C 257.890625 74.632812 258.472656 75.441406 259.09375 76.21875 C 259.714844 77 260.375 77.746094 261.070312 78.457031 C 261.761719 79.171875 262.492188 79.851562 263.253906 80.492188 C 264.011719 81.136719 264.804688 81.738281 265.625 82.304688 C 266.445312 82.867188 267.292969 83.390625 268.164062 83.875 C 269.035156 84.355469 269.929688 84.792969 270.84375 85.1875 C 271.757812 85.582031 272.6875 85.929688 273.636719 86.230469 C 274.585938 86.535156 275.546875 86.789062 276.523438 87 C 277.496094 87.207031 278.476562 87.367188 279.46875 87.480469 C 280.457031 87.589844 281.449219 87.65625 282.445312 87.667969 C 283.441406 87.683594 284.4375 87.648438 285.429688 87.566406 C 286.421875 87.484375 287.40625 87.351562 288.386719 87.171875 C 288.710938 87.113281 289.035156 87.117188 289.355469 87.1875 C 289.675781 87.253906 289.972656 87.382812 290.242188 87.570312 C 290.515625 87.757812 290.738281 87.988281 290.917969 88.261719 C 291.097656 88.539062 291.214844 88.839844 291.277344 89.164062 C 291.335938 89.484375 291.332031 89.808594 291.261719 90.128906 C 291.191406 90.453125 291.066406 90.746094 290.878906 91.019531 C 290.691406 91.289062 290.460938 91.515625 290.183594 91.691406 C 289.910156 91.871094 289.609375 91.992188 289.285156 92.050781 C 288.148438 92.261719 287 92.414062 285.84375 92.511719 C 284.691406 92.609375 283.535156 92.648438 282.375 92.632812 C 281.21875 92.613281 280.0625 92.542969 278.914062 92.410156 C 277.761719 92.28125 276.621094 92.09375 275.488281 91.851562 C 274.355469 91.609375 273.238281 91.3125 272.132812 90.960938 C 271.03125 90.609375 269.945312 90.203125 268.882812 89.746094 C 267.820312 89.289062 266.78125 88.777344 265.765625 88.21875 C 264.753906 87.65625 263.769531 87.046875 262.816406 86.390625 C 261.859375 85.734375 260.941406 85.03125 260.058594 84.28125 C 259.171875 83.535156 258.324219 82.746094 257.519531 81.914062 C 256.710938 81.085938 255.945312 80.214844 255.226562 79.3125 C 254.503906 78.40625 253.828125 77.464844 253.199219 76.492188 C 252.566406 75.523438 251.988281 74.519531 251.457031 73.492188 C 250.925781 72.460938 250.445312 71.410156 250.015625 70.332031 C 249.589844 69.257812 249.214844 68.160156 248.894531 67.046875 C 248.574219 65.9375 248.308594 64.808594 248.097656 63.671875 Z M 248.097656 63.671875 "/></g></g></g><g clip-rule="nonzero" clip-path="url(#9a01e4662e)"><g clip-rule="nonzero" clip-path="url(#b51b9a29ea)"><g clip-rule="nonzero" clip-path="url(#18e3e5b40a)"><path style=" stroke:none;fill-rule:nonzero;fill:#ffde80;fill-opacity:1;" d="M 234.636719 66.148438 C 234.578125 65.828125 234.582031 65.507812 234.648438 65.1875 C 234.71875 64.867188 234.84375 64.570312 235.03125 64.300781 C 235.214844 64.03125 235.445312 63.808594 235.722656 63.632812 C 235.996094 63.453125 236.292969 63.335938 236.617188 63.277344 C 236.9375 63.214844 237.257812 63.222656 237.578125 63.289062 C 237.898438 63.359375 238.191406 63.484375 238.460938 63.671875 C 238.730469 63.855469 238.957031 64.085938 239.132812 64.359375 C 239.3125 64.636719 239.429688 64.933594 239.488281 65.253906 C 239.753906 66.675781 240.085938 68.078125 240.484375 69.46875 C 240.886719 70.855469 241.355469 72.21875 241.890625 73.5625 C 242.425781 74.902344 243.023438 76.214844 243.6875 77.5 C 244.351562 78.78125 245.078125 80.03125 245.863281 81.242188 C 246.648438 82.453125 247.492188 83.625 248.394531 84.753906 C 249.292969 85.882812 250.25 86.964844 251.253906 88 C 252.261719 89.035156 253.316406 90.019531 254.421875 90.953125 C 255.523438 91.882812 256.671875 92.761719 257.859375 93.578125 C 259.050781 94.398438 260.277344 95.160156 261.542969 95.859375 C 262.804688 96.558594 264.101562 97.191406 265.425781 97.765625 C 266.753906 98.335938 268.105469 98.84375 269.480469 99.285156 C 270.855469 99.722656 272.25 100.09375 273.664062 100.398438 C 275.074219 100.699219 276.5 100.933594 277.933594 101.097656 C 279.371094 101.261719 280.808594 101.351562 282.253906 101.375 C 283.699219 101.398438 285.140625 101.347656 286.578125 101.230469 C 288.019531 101.109375 289.449219 100.921875 290.871094 100.660156 C 291.191406 100.601562 291.515625 100.605469 291.835938 100.675781 C 292.15625 100.742188 292.449219 100.871094 292.71875 101.058594 C 292.992188 101.242188 293.214844 101.472656 293.394531 101.75 C 293.570312 102.023438 293.691406 102.324219 293.75 102.644531 C 293.808594 102.96875 293.804688 103.289062 293.734375 103.609375 C 293.667969 103.929688 293.539062 104.222656 293.351562 104.496094 C 293.167969 104.765625 292.9375 104.988281 292.660156 105.167969 C 292.386719 105.34375 292.089844 105.464844 291.765625 105.523438 C 290.1875 105.808594 288.59375 106.019531 286.996094 106.152344 C 285.394531 106.28125 283.792969 106.335938 282.1875 106.308594 C 280.582031 106.28125 278.980469 106.179688 277.382812 105.996094 C 275.789062 105.8125 274.207031 105.554688 272.636719 105.214844 C 271.066406 104.878906 269.515625 104.464844 267.988281 103.976562 C 266.457031 103.484375 264.957031 102.921875 263.480469 102.285156 C 262.007812 101.648438 260.566406 100.941406 259.164062 100.164062 C 257.757812 99.386719 256.394531 98.542969 255.070312 97.632812 C 253.75 96.71875 252.476562 95.746094 251.246094 94.710938 C 250.019531 93.671875 248.847656 92.578125 247.726562 91.429688 C 246.609375 90.277344 245.546875 89.074219 244.546875 87.820312 C 243.542969 86.5625 242.605469 85.261719 241.730469 83.917969 C 240.855469 82.570312 240.050781 81.183594 239.3125 79.757812 C 238.574219 78.332031 237.90625 76.871094 237.3125 75.382812 C 236.714844 73.890625 236.195312 72.371094 235.746094 70.832031 C 235.300781 69.289062 234.929688 67.726562 234.636719 66.148438 Z M 234.636719 66.148438 "/></g></g></g><g style="fill:#ffde80;fill-opacity:1;"><g transform="translate(214.786972, 277.033118)"><path style="stroke:none" d="M 6.40625 0 L 6.40625 -85.40625 L 22.5625 -85.40625 L 34.703125 -23 L 46.109375 -85.40625 L 62.359375 -85.40625 L 62.359375 0 L 50.765625 0 L 50.765625 -31.84375 L 51.25 -61.046875 L 39.75 -0.390625 L 29.40625 -0.390625 L 17.421875 -61.046875 L 17.90625 -31.84375 L 17.90625 0 Z M 6.40625 0 "/></g></g><g style="fill:#ffde80;fill-opacity:1;"><g transform="translate(277.336166, 277.033118)"><path style="stroke:none" d="M 6.890625 0 L 6.890625 -85.40625 L 19.890625 -85.40625 L 19.890625 0 Z M 6.890625 0 "/></g></g><g style="fill:#ffde80;fill-opacity:1;"><g transform="translate(297.861547, 277.033118)"><path style="stroke:none" d="M 6.40625 0 L 6.40625 -85.40625 L 16.59375 -85.40625 L 34.703125 -34.171875 L 33.78125 -57.453125 L 33.78125 -85.40625 L 45.46875 -85.40625 L 45.46875 0 L 36.25 0 L 17.671875 -53.046875 L 18.390625 -30.625 L 18.390625 0 Z M 6.40625 0 "/></g></g><g style="fill:#ffde80;fill-opacity:1;"><g transform="translate(343.475051, 277.033118)"><path style="stroke:none" d="M 43.578125 -21.9375 C 43.578125 -14.070312 42.085938 -8.285156 39.109375 -4.578125 C 36.140625 -0.878906 31.363281 0.96875 24.78125 0.96875 C 18.195312 0.96875 13.40625 -0.890625 10.40625 -4.609375 C 7.414062 -8.328125 5.921875 -14.101562 5.921875 -21.9375 L 5.921875 -85.46875 L 18.921875 -85.46875 L 18.921875 -22.171875 C 18.921875 -17.679688 19.128906 -14.945312 19.546875 -13.96875 C 19.972656 -13 20.484375 -12.117188 21.078125 -11.328125 C 21.679688 -10.535156 22.921875 -10.140625 24.796875 -10.140625 C 26.671875 -10.140625 28.015625 -10.6875 28.828125 -11.78125 C 29.640625 -12.882812 30.132812 -14.253906 30.3125 -15.890625 C 30.488281 -17.523438 30.578125 -19.617188 30.578125 -22.171875 L 30.578125 -85.46875 L 43.578125 -85.46875 Z M 43.578125 -21.9375 "/></g></g><g style="fill:#ffde80;fill-opacity:1;"><g transform="translate(386.710753, 277.033118)"><path style="stroke:none" d="M 10.78125 0 L 10.78125 -74.15625 L 0.78125 -74.15625 L 0.78125 -85.40625 L 33.34375 -85.40625 L 33.34375 -74.15625 L 23.734375 -74.15625 L 23.734375 0 Z M 10.78125 0 "/></g></g><g style="fill:#ffde80;fill-opacity:1;"><g transform="translate(414.563623, 277.033118)"><path style="stroke:none" d="M 6.40625 0 L 6.40625 -85.40625 L 35.046875 -85.40625 L 35.046875 -74.203125 L 19.40625 -74.203125 L 19.40625 -49.359375 L 34.265625 -49.359375 L 34.265625 -38.390625 L 19.40625 -38.390625 L 19.40625 -11.203125 L 35.625 -11.203125 L 35.625 0 Z M 6.40625 0 "/></g></g><g style="fill:#ffde80;fill-opacity:1;"><g transform="translate(257.484813, 304.253549)"><path style="stroke:none" d="M 6.84375 0.09375 C 5.707031 0.09375 4.679688 -0.15625 3.765625 -0.65625 C 2.859375 -1.15625 2.144531 -1.847656 1.625 -2.734375 C 1.113281 -3.628906 0.859375 -4.628906 0.859375 -5.734375 C 0.859375 -6.835938 1.113281 -7.832031 1.625 -8.71875 C 2.144531 -9.613281 2.863281 -10.3125 3.78125 -10.8125 C 4.695312 -11.320312 5.726562 -11.578125 6.875 -11.578125 C 7.71875 -11.578125 8.5 -11.429688 9.21875 -11.140625 C 9.945312 -10.859375 10.5625 -10.445312 11.0625 -9.90625 L 10.296875 -9.125 C 9.398438 -10.03125 8.269531 -10.484375 6.90625 -10.484375 C 6 -10.484375 5.171875 -10.273438 4.421875 -9.859375 C 3.679688 -9.453125 3.097656 -8.882812 2.671875 -8.15625 C 2.253906 -7.4375 2.046875 -6.628906 2.046875 -5.734375 C 2.046875 -4.835938 2.253906 -4.03125 2.671875 -3.3125 C 3.097656 -2.59375 3.679688 -2.023438 4.421875 -1.609375 C 5.171875 -1.191406 6 -0.984375 6.90625 -0.984375 C 8.28125 -0.984375 9.410156 -1.441406 10.296875 -2.359375 L 11.0625 -1.59375 C 10.5625 -1.039062 9.945312 -0.617188 9.21875 -0.328125 C 8.488281 -0.046875 7.695312 0.09375 6.84375 0.09375 Z M 6.84375 0.09375 "/></g></g><g style="fill:#ffde80;fill-opacity:1;"><g transform="translate(271.393347, 304.253549)"><path style="stroke:none" d="M 9.0625 -3.0625 L 2.671875 -3.0625 L 1.296875 0 L 0.03125 0 L 5.28125 -11.46875 L 6.46875 -11.46875 L 11.71875 0 L 10.4375 0 Z M 8.625 -4.046875 L 5.875 -10.21875 L 3.109375 -4.046875 Z M 8.625 -4.046875 "/></g></g><g style="fill:#ffde80;fill-opacity:1;"><g transform="translate(285.269117, 304.253549)"><path style="stroke:none" d="M 1.875 -11.46875 L 3.078125 -11.46875 L 3.078125 -1.046875 L 9.5 -1.046875 L 9.5 0 L 1.875 0 Z M 1.875 -11.46875 "/></g></g><g style="fill:#ffde80;fill-opacity:1;"><g transform="translate(297.048049, 304.253549)"><path style="stroke:none" d="M 1.875 -11.46875 L 3.078125 -11.46875 L 3.078125 -1.046875 L 9.5 -1.046875 L 9.5 0 L 1.875 0 Z M 1.875 -11.46875 "/></g></g><g style="fill:#ffde80;fill-opacity:1;"><g transform="translate(308.826982, 304.253549)"><path style="stroke:none" d=""/></g></g><g style="fill:#ffde80;fill-opacity:1;"><g transform="translate(315.249147, 304.253549)"><path style="stroke:none" d="M 6.15625 -11.46875 C 7.625 -11.46875 8.769531 -11.117188 9.59375 -10.421875 C 10.425781 -9.722656 10.84375 -8.765625 10.84375 -7.546875 C 10.84375 -6.316406 10.425781 -5.351562 9.59375 -4.65625 C 8.769531 -3.96875 7.625 -3.625 6.15625 -3.625 L 3.078125 -3.625 L 3.078125 0 L 1.875 0 L 1.875 -11.46875 Z M 6.125 -4.6875 C 7.257812 -4.6875 8.128906 -4.929688 8.734375 -5.421875 C 9.335938 -5.921875 9.640625 -6.628906 9.640625 -7.546875 C 9.640625 -8.472656 9.335938 -9.179688 8.734375 -9.671875 C 8.128906 -10.171875 7.257812 -10.421875 6.125 -10.421875 L 3.078125 -10.421875 L 3.078125 -4.6875 Z M 6.125 -4.6875 "/></g></g><g style="fill:#ffde80;fill-opacity:1;"><g transform="translate(329.1413, 304.253549)"><path style="stroke:none" d="M 9.703125 0 L 7.078125 -3.6875 C 6.785156 -3.65625 6.476562 -3.640625 6.15625 -3.640625 L 3.078125 -3.640625 L 3.078125 0 L 1.875 0 L 1.875 -11.46875 L 6.15625 -11.46875 C 7.625 -11.46875 8.769531 -11.117188 9.59375 -10.421875 C 10.425781 -9.722656 10.84375 -8.765625 10.84375 -7.546875 C 10.84375 -6.648438 10.613281 -5.890625 10.15625 -5.265625 C 9.707031 -4.648438 9.066406 -4.207031 8.234375 -3.9375 L 11.03125 0 Z M 6.125 -4.671875 C 7.257812 -4.671875 8.128906 -4.921875 8.734375 -5.421875 C 9.335938 -5.921875 9.640625 -6.628906 9.640625 -7.546875 C 9.640625 -8.472656 9.335938 -9.179688 8.734375 -9.671875 C 8.128906 -10.171875 7.257812 -10.421875 6.125 -10.421875 L 3.078125 -10.421875 L 3.078125 -4.671875 Z M 6.125 -4.671875 "/></g></g><g style="fill:#ffde80;fill-opacity:1;"><g transform="translate(343.115359, 304.253549)"><path style="stroke:none" d="M 6.890625 0.09375 C 5.742188 0.09375 4.707031 -0.15625 3.78125 -0.65625 C 2.863281 -1.164062 2.144531 -1.863281 1.625 -2.75 C 1.113281 -3.632812 0.859375 -4.628906 0.859375 -5.734375 C 0.859375 -6.835938 1.113281 -7.832031 1.625 -8.71875 C 2.144531 -9.601562 2.863281 -10.300781 3.78125 -10.8125 C 4.707031 -11.320312 5.742188 -11.578125 6.890625 -11.578125 C 8.023438 -11.578125 9.046875 -11.320312 9.953125 -10.8125 C 10.867188 -10.3125 11.585938 -9.613281 12.109375 -8.71875 C 12.640625 -7.832031 12.90625 -6.835938 12.90625 -5.734375 C 12.90625 -4.628906 12.640625 -3.628906 12.109375 -2.734375 C 11.585938 -1.847656 10.867188 -1.15625 9.953125 -0.65625 C 9.046875 -0.15625 8.023438 0.09375 6.890625 0.09375 Z M 6.890625 -0.984375 C 7.796875 -0.984375 8.613281 -1.1875 9.34375 -1.59375 C 10.070312 -2.007812 10.644531 -2.578125 11.0625 -3.296875 C 11.476562 -4.023438 11.6875 -4.835938 11.6875 -5.734375 C 11.6875 -6.628906 11.476562 -7.441406 11.0625 -8.171875 C 10.644531 -8.898438 10.070312 -9.46875 9.34375 -9.875 C 8.613281 -10.28125 7.796875 -10.484375 6.890625 -10.484375 C 5.984375 -10.484375 5.160156 -10.28125 4.421875 -9.875 C 3.679688 -9.46875 3.097656 -8.898438 2.671875 -8.171875 C 2.253906 -7.441406 2.046875 -6.628906 2.046875 -5.734375 C 2.046875 -4.835938 2.253906 -4.023438 2.671875 -3.296875 C 3.097656 -2.578125 3.679688 -2.007812 4.421875 -1.59375 C 5.160156 -1.1875 5.984375 -0.984375 6.890625 -0.984375 Z M 6.890625 -0.984375 "/></g></g><g style="fill:#ffde80;fill-opacity:1;"><g transform="translate(358.98968, 304.253549)"><path style="stroke:none" d="M 3.09375 0.09375 C 2.4375 0.09375 1.828125 -0.046875 1.265625 -0.328125 C 0.710938 -0.609375 0.265625 -1.015625 -0.078125 -1.546875 L 0.640625 -2.359375 C 1.273438 -1.421875 2.097656 -0.953125 3.109375 -0.953125 C 4.535156 -0.953125 5.25 -1.789062 5.25 -3.46875 L 5.25 -10.421875 L 1.046875 -10.421875 L 1.046875 -11.46875 L 6.4375 -11.46875 L 6.4375 -3.53125 C 6.4375 -2.320312 6.15625 -1.414062 5.59375 -0.8125 C 5.03125 -0.207031 4.195312 0.09375 3.09375 0.09375 Z M 3.09375 0.09375 "/></g></g><g style="fill:#ffde80;fill-opacity:1;"><g transform="translate(369.327038, 304.253549)"><path style="stroke:none" d="M 9.984375 -1.046875 L 9.984375 0 L 1.875 0 L 1.875 -11.46875 L 9.734375 -11.46875 L 9.734375 -10.421875 L 3.078125 -10.421875 L 3.078125 -6.34375 L 9.015625 -6.34375 L 9.015625 -5.3125 L 3.078125 -5.3125 L 3.078125 -1.046875 Z M 9.984375 -1.046875 "/></g></g><g style="fill:#ffde80;fill-opacity:1;"><g transform="translate(382.416493, 304.253549)"><path style="stroke:none" d="M 6.84375 0.09375 C 5.707031 0.09375 4.679688 -0.15625 3.765625 -0.65625 C 2.859375 -1.15625 2.144531 -1.847656 1.625 -2.734375 C 1.113281 -3.628906 0.859375 -4.628906 0.859375 -5.734375 C 0.859375 -6.835938 1.113281 -7.832031 1.625 -8.71875 C 2.144531 -9.613281 2.863281 -10.3125 3.78125 -10.8125 C 4.695312 -11.320312 5.726562 -11.578125 6.875 -11.578125 C 7.71875 -11.578125 8.5 -11.429688 9.21875 -11.140625 C 9.945312 -10.859375 10.5625 -10.445312 11.0625 -9.90625 L 10.296875 -9.125 C 9.398438 -10.03125 8.269531 -10.484375 6.90625 -10.484375 C 6 -10.484375 5.171875 -10.273438 4.421875 -9.859375 C 3.679688 -9.453125 3.097656 -8.882812 2.671875 -8.15625 C 2.253906 -7.4375 2.046875 -6.628906 2.046875 -5.734375 C 2.046875 -4.835938 2.253906 -4.03125 2.671875 -3.3125 C 3.097656 -2.59375 3.679688 -2.023438 4.421875 -1.609375 C 5.171875 -1.191406 6 -0.984375 6.90625 -0.984375 C 8.28125 -0.984375 9.410156 -1.441406 10.296875 -2.359375 L 11.0625 -1.59375 C 10.5625 -1.039062 9.945312 -0.617188 9.21875 -0.328125 C 8.488281 -0.046875 7.695312 0.09375 6.84375 0.09375 Z M 6.84375 0.09375 "/></g></g><g style="fill:#ffde80;fill-opacity:1;"><g transform="translate(396.325027, 304.253549)"><path style="stroke:none" d="M 4.09375 -10.421875 L 0.0625 -10.421875 L 0.0625 -11.46875 L 9.34375 -11.46875 L 9.34375 -10.421875 L 5.3125 -10.421875 L 5.3125 0 L 4.09375 0 Z M 4.09375 -10.421875 "/></g></g><g style="fill:#ffde80;fill-opacity:1;"><g transform="translate(136.290548, 110.32307)"><path style="stroke:none" d="M 4.09375 -10.421875 L 0.0625 -10.421875 L 0.0625 -11.46875 L 9.34375 -11.46875 L 9.34375 -10.421875 L 5.3125 -10.421875 L 5.3125 0 L 4.09375 0 Z M 4.09375 -10.421875 "/></g></g><g style="fill:#ffde80;fill-opacity:1;"><g transform="translate(147.823758, 110.32307)"><path style="stroke:none" d="M 11.453125 -11.46875 L 11.453125 0 L 10.265625 0 L 10.265625 -5.296875 L 3.078125 -5.296875 L 3.078125 0 L 1.875 0 L 1.875 -11.46875 L 3.078125 -11.46875 L 3.078125 -6.359375 L 10.265625 -6.359375 L 10.265625 -11.46875 Z M 11.453125 -11.46875 "/></g></g><g style="fill:#ffde80;fill-opacity:1;"><g transform="translate(163.272162, 110.32307)"><path style="stroke:none" d="M 9.984375 -1.046875 L 9.984375 0 L 1.875 0 L 1.875 -11.46875 L 9.734375 -11.46875 L 9.734375 -10.421875 L 3.078125 -10.421875 L 3.078125 -6.34375 L 9.015625 -6.34375 L 9.015625 -5.3125 L 3.078125 -5.3125 L 3.078125 -1.046875 Z M 9.984375 -1.046875 "/></g></g></g></svg>